<svg xmlns="http://www.w3.org/2000/svg" viewBox="0 0 500 500"><g id="freepik--background-complete--inject-6"><path d="M189.65,228.65a23.66,23.66,0,1,0-.28-37.13h0l-5.18-4-7.71,2.41.88-7.71-6.5-5.05-7.7,2.4.88-7.71-5.59-4.34-4.7,1.46.54-4.7L151,161.72l-7.38.72-1,11.34,38.66,30.05A23.68,23.68,0,0,0,189.65,228.65Zm28.17-8.07a6.78,6.78,0,1,1-1.2-9.52A6.8,6.8,0,0,1,217.82,220.58Z" style="fill:#ebebeb"></path><path d="M220.81,138.27a12.67,12.67,0,1,0-19.88-.34h0l-2.23,2.72,1.19,4.16-4.12-.57L193,147.66l1.19,4.16-4.11-.58-2.4,2.94.72,2.53-2.51-.35-1.39,1.71.29,4,6.06.68,16.58-20.31A12.68,12.68,0,0,0,220.81,138.27Zm-4-15.18a3.63,3.63,0,1,1-5.11.51A3.62,3.62,0,0,1,216.85,123.09Z" style="fill:#ebebeb"></path><polygon points="167.32 52.37 167.32 125.75 61.91 125.75 58.12 52.88 167.32 52.37" style="fill:#e0e0e0"></polygon><rect x="74.46" y="36.54" width="72.72" height="105.41" transform="translate(21.58 200.06) rotate(-90)" style="fill:#fff"></rect><path d="M164,126.1H57.62V52.38H164Zm-105.4-1H163V53.38H58.62Z" style="fill:#e0e0e0"></path><rect x="69.53" y="61.91" width="82.57" height="54.65" style="fill:#fff"></rect><path d="M152.11,61.91l-.41,0h-1.18L146,62,129,62l-59.44.12.24-.24c0,16.7,0,35.2,0,54.65h0l-.26-.26,82.58.06-.21.2c0-16.63.08-30.26.11-39.76,0-4.75,0-8.45.05-11,0-1.26,0-2.22,0-2.89s0-1,0-1,0,.32,0,1,0,1.61,0,2.85c0,2.53,0,6.23,0,11,0,9.53.07,23.21.11,39.89v.21h-.2l-82.58,0h-.26v-.27h0c0-19.45,0-37.95,0-54.65v-.24h.24l59.6.12,17,.07,4.49,0,1.15,0Z" style="fill:#e0e0e0"></path><path d="M58.11,52.67a9.18,9.18,0,0,1,1.82,1.18c1.08.78,2.54,1.88,4.13,3.15s3,2.47,4,3.37a8.73,8.73,0,0,1,1.51,1.54c-.1.11-2.63-2-5.8-4.5A59.17,59.17,0,0,1,58.11,52.67Z" style="fill:#e0e0e0"></path><path d="M163.52,52.88A52,52,0,0,1,158,57.6a52.17,52.17,0,0,1-5.87,4.31,52,52,0,0,1,5.54-4.72A51.6,51.6,0,0,1,163.52,52.88Z" style="fill:#e0e0e0"></path><path d="M163.44,125.61l-11.75-9.53" style="fill:#fff"></path><path d="M151.69,116.08a56,56,0,0,1,6,4.56,57.06,57.06,0,0,1,5.71,5,54.92,54.92,0,0,1-6-4.56A53,53,0,0,1,151.69,116.08Z" style="fill:#e0e0e0"></path><path d="M58.11,125.6a50.8,50.8,0,0,1,5.49-4.67,51.62,51.62,0,0,1,5.81-4.27,48.33,48.33,0,0,1-5.48,4.68A50.73,50.73,0,0,1,58.11,125.6Z" style="fill:#e0e0e0"></path><rect x="103.13" y="62.11" width="18.3" height="51.96" transform="translate(24.19 200.37) rotate(-90)" style="fill:#e0e0e0"></rect></g><g id="freepik--Sreen--inject-6"><rect x="237.76" y="47.12" width="206.45" height="313.39" style="fill:#fff"></rect><rect x="237.34" y="63.08" width="206.51" height="134.87" style="fill:#f5f5f5"></rect><path d="M287.79,217V220h4.41v1.08h-4.41v3.56h-1.26v-8.8h6.22V217Z" style="fill:#263238"></path><path d="M293.51,221.34a3.47,3.47,0,1,1,3.47,3.41A3.32,3.32,0,0,1,293.51,221.34Zm5.71,0a2.25,2.25,0,1,0-2.24,2.35A2.19,2.19,0,0,0,299.22,221.34Z" style="fill:#263238"></path><path d="M305.7,217.94v1.17h-.28a2,2,0,0,0-2.1,2.25v3.32h-1.21V218h1.16v1.11A2.57,2.57,0,0,1,305.7,217.94Z" style="fill:#263238"></path><path d="M313.49,218v5.75c0,2.36-1.19,3.42-3.45,3.42a4.88,4.88,0,0,1-3.18-1l.57-.93a4.08,4.08,0,0,0,2.57.87c1.57,0,2.29-.73,2.29-2.24v-.53a3.06,3.06,0,0,1-2.4,1,3.23,3.23,0,1,1,0-6.45,3,3,0,0,1,2.46,1.1v-1Zm-1.18,3.15a2.3,2.3,0,0,0-4.59,0,2.3,2.3,0,0,0,4.59,0Z" style="fill:#263238"></path><path d="M315.18,221.34a3.47,3.47,0,1,1,3.47,3.41A3.32,3.32,0,0,1,315.18,221.34Zm5.71,0a2.25,2.25,0,1,0-2.24,2.35A2.19,2.19,0,0,0,320.89,221.34Z" style="fill:#263238"></path><path d="M327.53,224.28a2.32,2.32,0,0,1-1.46.47,1.9,1.9,0,0,1-2.11-2.09V219h-1.14v-1H324v-1.46h1.2V218h1.91v1h-1.91v3.61a1,1,0,0,0,1,1.12,1.52,1.52,0,0,0,.94-.32Z" style="fill:#263238"></path><path d="M339.27,221.34a3.24,3.24,0,0,1-3.37,3.41,2.83,2.83,0,0,1-2.32-1.09v3.45h-1.21V218h1.16v1.05a2.83,2.83,0,0,1,2.37-1.12A3.24,3.24,0,0,1,339.27,221.34Zm-1.22,0a2.25,2.25,0,1,0-2.25,2.35A2.2,2.2,0,0,0,338.05,221.34Z" style="fill:#263238"></path><path d="M346.16,220.65v4H345v-.88a2.49,2.49,0,0,1-2.19,1c-1.51,0-2.46-.81-2.46-2s.69-1.95,2.67-1.95H345v-.23c0-1-.6-1.61-1.79-1.61a3.35,3.35,0,0,0-2.11.71l-.5-.9a4.38,4.38,0,0,1,2.75-.86C345.13,217.94,346.16,218.82,346.16,220.65Zm-1.2,2v-.93H343.1c-1.2,0-1.54.47-1.54,1s.55,1.08,1.47,1.08A1.94,1.94,0,0,0,345,222.63Z" style="fill:#263238"></path><path d="M347.56,224l.5-1a4.31,4.31,0,0,0,2.34.69c1.12,0,1.58-.34,1.58-.9,0-1.5-4.21-.2-4.21-2.86,0-1.19,1.07-2,2.78-2a4.83,4.83,0,0,1,2.43.61l-.52.95a3.47,3.47,0,0,0-1.92-.53c-1.06,0-1.57.39-1.57.92,0,1.57,4.22.29,4.22,2.88,0,1.21-1.1,2-2.88,2A4.81,4.81,0,0,1,347.56,224Z" style="fill:#263238"></path><path d="M353.86,224l.5-1a4.31,4.31,0,0,0,2.34.69c1.12,0,1.58-.34,1.58-.9,0-1.5-4.21-.2-4.21-2.86,0-1.19,1.07-2,2.78-2a4.83,4.83,0,0,1,2.43.61l-.52.95a3.47,3.47,0,0,0-1.92-.53c-1.06,0-1.57.39-1.57.92,0,1.57,4.22.29,4.22,2.88,0,1.21-1.1,2-2.88,2A4.81,4.81,0,0,1,353.86,224Z" style="fill:#263238"></path><path d="M371,218l-2.49,6.66h-1.16l-1.92-5-1.95,5h-1.16L359.81,218H361l1.94,5.3,2-5.3h1l2,5.33,2-5.33Z" style="fill:#263238"></path><path d="M371.38,221.34a3.46,3.46,0,1,1,3.47,3.41A3.32,3.32,0,0,1,371.38,221.34Zm5.7,0a2.24,2.24,0,1,0-2.23,2.35A2.18,2.18,0,0,0,377.08,221.34Z" style="fill:#263238"></path><path d="M383.56,217.94v1.17h-.28a2,2,0,0,0-2.1,2.25v3.32H380V218h1.15v1.11A2.57,2.57,0,0,1,383.56,217.94Z" style="fill:#263238"></path><path d="M391.27,215.34v9.33h-1.16v-1.06a2.81,2.81,0,0,1-2.38,1.14,3.41,3.41,0,0,1,0-6.81,2.85,2.85,0,0,1,2.33,1.07v-3.67Zm-1.2,6a2.25,2.25,0,1,0-2.24,2.35A2.19,2.19,0,0,0,390.07,221.34Z" style="fill:#263238"></path><path d="M397.49,218.19c0-.8-.66-1.35-1.8-1.35a2.7,2.7,0,0,0-2.25,1l-.91-.65a3.88,3.88,0,0,1,3.25-1.41c1.81,0,3,.84,3,2.24,0,2.1-2.22,2.23-2.22,3.88h-1.26C395.28,219.92,397.49,219.64,397.49,218.19Zm-2.39,5.75a.82.82,0,0,1,1.63,0,.82.82,0,0,1-1.63,0Z" style="fill:#263238"></path><path d="M422.61,242.73c0,.15-35.38.26-79,.26s-79-.11-79-.26,35.37-.26,79-.26S422.61,242.59,422.61,242.73Z"></path><path d="M388.88,251.18c0,.14-20.27.26-45.28.26s-45.29-.12-45.29-.26,20.28-.26,45.29-.26S388.88,251,388.88,251.18Z"></path><path d="M374.6,144.09a24.08,24.08,0,1,0-37.36-5.71l-4.9,4.57,1.18,8.13L325.91,149l-6.13,5.72L321,162.8l-7.6-2.13-5.27,4.91.72,5-4.64-1.3-3.06,2.86-.46,7.53,11.23,2.83,36.45-34A24.09,24.09,0,0,0,374.6,144.09ZM371,114.48a6.91,6.91,0,1,1-9.76-.34A6.91,6.91,0,0,1,371,114.48Z" style="fill:#263238"></path><path d="M374.6,144.09a24.08,24.08,0,1,0-37.36-5.71l-4.9,4.57,1.18,8.13L325.91,149l-6.13,5.72L321,162.8l-7.6-2.13-5.27,4.91.72,5-4.64-1.3-3.06,2.86-.46,7.53,11.23,2.83,36.45-34A24.09,24.09,0,0,0,374.6,144.09ZM371,114.48a6.91,6.91,0,1,1-9.76-.34A6.91,6.91,0,0,1,371,114.48Z" style="fill:none"></path><path d="M371,114.48s-.45-.42-1.37-1a7,7,0,0,0-4.35-.95,6.65,6.65,0,1,0,7.26,7.78,6.86,6.86,0,0,0-.65-4.4c-.5-1-.94-1.4-.89-1.44s.13.09.33.3a5.53,5.53,0,0,1,.77,1,6.85,6.85,0,0,1,.86,4.58,7.11,7.11,0,0,1-8.35,5.87,7.13,7.13,0,0,1-5.8-6.22,7.11,7.11,0,0,1,6.43-7.92,6.86,6.86,0,0,1,4.52,1.18,5.34,5.34,0,0,1,1,.83C371,114.35,371.06,114.47,371,114.48Z" style="fill:#263238"></path><path d="M374.6,144.09s-.11.12-.35.33l-1.06,1a24.92,24.92,0,0,1-4.66,3,24.21,24.21,0,0,1-20.29.29l.2,0-36.39,34.06-.1.11-.15,0-11.23-2.82-.23-.05,0-.24c.14-2.35.29-4.92.45-7.53V172l.08-.08L304,169l.11-.11.16,0,4.64,1.3-.37.32c-.23-1.55-.47-3.25-.72-5l0-.15.11-.1,5.27-4.92.12-.12.16,0,7.6,2.13-.37.33c-.37-2.58-.77-5.34-1.17-8.13l0-.16.12-.1,1.62-1.52,4.51-4.2.12-.12.16,0,7.61,2.13-.38.33q-.59-4.11-1.17-8.13l0-.15.11-.11,4.9-4.57-.05.36a24.51,24.51,0,0,1-3.13-11,23,23,0,0,1,.4-5.57,23.55,23.55,0,0,1,1.6-5.24,24.3,24.3,0,0,1,44.07-1,24.14,24.14,0,0,1,2.37,12.64,23.67,23.67,0,0,1-2.7,9.27c-.15.3-.3.58-.45.86l-.49.76c-.33.49-.6,1-.92,1.37-.65.78-1.15,1.48-1.64,2L375,143.73l-.39.36s.11-.14.35-.4l1.08-1.15c.47-.5,1-1.21,1.59-2,.3-.41.56-.89.88-1.37.16-.25.32-.5.48-.77l.44-.85A23.87,23.87,0,1,0,336.37,117a23.53,23.53,0,0,0-1.56,5.12,23,23,0,0,0-.38,5.44,24,24,0,0,0,3.07,10.7l.11.2-.17.16-4.89,4.57.09-.26q.58,4,1.17,8.14l.07.45-.45-.12-7.6-2.13.29-.07-4.51,4.2L320,154.89l.09-.27c.4,2.79.8,5.56,1.17,8.13l.07.46-.45-.12-7.6-2.14.28-.07c-1.81,1.7-3.61,3.37-5.27,4.92l.1-.26c.24,1.71.48,3.41.71,5l.06.44-.43-.12-4.63-1.3.27-.07-3.07,2.86.09-.19c-.16,2.61-.32,5.18-.46,7.53l-.21-.29,11.23,2.83-.25.07,36.5-33.94.09-.08.11,0a24.07,24.07,0,0,0,20.06-.14,26.43,26.43,0,0,0,4.68-2.86l1.09-.91Z" style="fill:#263238"></path><path d="M373.79,141.36a24.07,24.07,0,1,0-37.35-5.72h0l-4.89,4.56,1.17,8.14-7.6-2.14L319,151.93l1.17,8.13-7.6-2.13-5.27,4.92.71,5-4.63-1.29-3.07,2.86-.46,7.53,11.23,2.82,36.45-34A24.06,24.06,0,0,0,373.79,141.36Zm-3.56-29.61a6.91,6.91,0,1,1-9.76-.34A6.9,6.9,0,0,1,370.23,111.75Z" style="fill:#FFBA00"></path><path d="M373.79,141.36a24.07,24.07,0,1,0-37.35-5.72h0l-4.89,4.56,1.17,8.14-7.6-2.14L319,151.93l1.17,8.13-7.6-2.13-5.27,4.92.71,5-4.63-1.29-3.07,2.86-.46,7.53,11.23,2.82,36.45-34A24.06,24.06,0,0,0,373.79,141.36Zm-3.56-29.61a6.91,6.91,0,1,1-9.76-.34A6.9,6.9,0,0,1,370.23,111.75Z" style="fill:none"></path><path d="M370.23,111.75s-.45-.42-1.37-1a6.85,6.85,0,0,0-4.34-1,6.64,6.64,0,1,0,7.26,7.78,6.85,6.85,0,0,0-.66-4.4c-.5-1-.93-1.4-.89-1.44s.13.09.34.3a5.54,5.54,0,0,1,.76,1,6.84,6.84,0,0,1,.86,4.59,7.12,7.12,0,0,1-8.34,5.87A7.12,7.12,0,0,1,358,117.3a7.13,7.13,0,0,1,6.43-7.92,6.85,6.85,0,0,1,4.52,1.19,5,5,0,0,1,1,.83C370.16,111.62,370.25,111.74,370.23,111.75Z" style="fill:#263238"></path><path d="M373.79,141.36s-.11.12-.34.33l-1.06.94a25.39,25.39,0,0,1-4.66,3,24.24,24.24,0,0,1-20.3.29l.2,0-36.38,34.06-.11.1-.14,0-11.24-2.82-.22-.06v-.23c.14-2.35.3-4.92.45-7.53v-.12l.08-.07,3.07-2.87.12-.11.16,0,4.63,1.29-.37.33c-.22-1.55-.47-3.25-.72-5l0-.15.12-.11,5.26-4.91.12-.12.17.05,7.6,2.13-.38.33L318.68,152l0-.16.11-.11,1.63-1.51,4.5-4.2.12-.12.17.05,7.6,2.13-.38.33q-.59-4.11-1.17-8.13l0-.16.12-.1,4.9-4.57-.06.36a24.51,24.51,0,0,1-3.13-11,23.5,23.5,0,0,1,.4-5.57,23.75,23.75,0,0,1,1.6-5.24,24.25,24.25,0,0,1,46.44,11.63,23.72,23.72,0,0,1-2.7,9.27l-.45.86-.49.76c-.33.49-.6,1-.91,1.37-.65.78-1.15,1.48-1.64,2L374.18,141c-.25.25-.39.37-.39.37s.12-.15.36-.41l1.07-1.14c.47-.5,1-1.21,1.59-2,.3-.4.57-.88.89-1.37l.48-.76.43-.86a23.69,23.69,0,0,0,2.59-9.19,23.86,23.86,0,0,0-45.64-11.39,23.5,23.5,0,0,0-1.55,5.12,22.45,22.45,0,0,0-.38,5.44,24,24,0,0,0,3.06,10.7l.12.2-.17.16-4.9,4.57.09-.26q.59,4,1.17,8.13l.07.46-.44-.13L325,146.5l.28-.07-4.5,4.21-1.63,1.51.09-.26c.41,2.79.8,5.55,1.17,8.13l.07.46-.44-.13-7.61-2.13.29-.07-5.27,4.91.09-.25c.24,1.71.49,3.4.71,4.95l.06.45-.43-.12-4.63-1.3.27-.07-3.06,2.86.09-.2c-.16,2.61-.32,5.19-.47,7.53l-.21-.29,11.23,2.84-.25.07,36.5-33.94.09-.08.11.05a24.18,24.18,0,0,0,20.06-.14,26.81,26.81,0,0,0,4.69-2.86l1.08-.91Z" style="fill:#263238"></path><path d="M371.58,139.48a32.5,32.5,0,0,0,3.24-4.08,20.24,20.24,0,0,0,2.47-5.54,21.14,21.14,0,0,0,.69-8,20.85,20.85,0,0,0-3.17-9.12,21.1,21.1,0,0,0-8.18-7.4,19.5,19.5,0,0,0-5.69-1.92,22.66,22.66,0,0,0-3.09-.36,24.13,24.13,0,0,0-3.17.16,20.79,20.79,0,0,0-18.07,16.85,24,24,0,0,0-.38,3.15,22.9,22.9,0,0,0,.15,3.11,19.37,19.37,0,0,0,1.52,5.81,21,21,0,0,0,6.82,8.67,20.7,20.7,0,0,0,8.87,3.8,21,21,0,0,0,8-.13,20.44,20.44,0,0,0,5.7-2.09,31.88,31.88,0,0,0,4.29-2.94s-.07.09-.24.24l-.75.68a9.87,9.87,0,0,1-1.29,1,14.63,14.63,0,0,1-1.9,1.22,20.23,20.23,0,0,1-5.74,2.21,21.33,21.33,0,0,1-24.27-12.45,20.08,20.08,0,0,1-1.58-6A19.37,19.37,0,0,1,336,120a21.34,21.34,0,0,1,18.58-17.33,19.92,19.92,0,0,1,6.43.22,20.36,20.36,0,0,1,5.84,2,21.49,21.49,0,0,1,8.35,7.63A21.45,21.45,0,0,1,377.62,130a20,20,0,0,1-2.61,5.58,13.58,13.58,0,0,1-1.34,1.8,10.08,10.08,0,0,1-1.1,1.22l-.73.7C371.68,139.41,371.59,139.49,371.58,139.48Z" style="fill:#263238"></path><path d="M370.61,122.39c-.05,0,.5-.52,1.17-1.59a8,8,0,0,0,1.14-5.11,7.81,7.81,0,0,0-4.29-6.17,7.72,7.72,0,0,0-4.46-.79,7.83,7.83,0,0,0-6.28,10.81,8.06,8.06,0,0,0,2.54,3.25,8,8,0,0,0,3.32,1.45,8,8,0,0,0,5.18-.79c1.12-.59,1.63-1.11,1.68-1.06s-.11.15-.36.38a6,6,0,0,1-1.21.89,8.16,8.16,0,0,1-8.9-.47,8.32,8.32,0,0,1-3.3-8.28,8.31,8.31,0,0,1,7.26-6.76,8.24,8.24,0,0,1,4.79.87,8.39,8.39,0,0,1,3.24,3,8.21,8.21,0,0,1-.15,8.91,6.3,6.3,0,0,1-1,1.14C370.76,122.3,370.62,122.41,370.61,122.39Z" style="fill:#263238"></path><path d="M308.12,178.39c-.11-.12,8.09-8,18.33-17.51s18.63-17.19,18.74-17.07-8.09,8-18.33,17.51S308.23,178.51,308.12,178.39Z" style="fill:#263238"></path><path d="M312.64,130.67l.34-.74.44.68a3.44,3.44,0,0,0,1.46,1.24l.75.33-.68.45a3.41,3.41,0,0,0-1.25,1.46l-.33.74-.45-.68a3.4,3.4,0,0,0-1.46-1.24l-.74-.33.68-.45A3.32,3.32,0,0,0,312.64,130.67Z" style="fill:#FFBA00"></path><path d="M290.33,125.11l.19-.43.26.39a1.92,1.92,0,0,0,.85.72l.43.2-.4.26a2,2,0,0,0-.72.84l-.19.44-.26-.4a1.92,1.92,0,0,0-.85-.72l-.43-.2.39-.25A2.07,2.07,0,0,0,290.33,125.11Z" style="fill:#FFBA00"></path><path d="M360.6,163.14l.19-.43.26.4a2.12,2.12,0,0,0,.85.72l.43.19-.39.26a1.92,1.92,0,0,0-.72.85l-.2.43-.26-.39a2,2,0,0,0-.84-.73l-.44-.19.4-.26A1.92,1.92,0,0,0,360.6,163.14Z" style="fill:#FFBA00"></path><path d="M395,143.64l.33-.74.45.68a3.39,3.39,0,0,0,1.46,1.24l.74.33-.68.45a3.38,3.38,0,0,0-1.24,1.46l-.34.74-.44-.68a3.51,3.51,0,0,0-1.46-1.24l-.75-.33.68-.45A3.41,3.41,0,0,0,395,143.64Z" style="fill:#FFBA00"></path><path d="M390.53,116.32l.56-1.25.75,1.15a5.79,5.79,0,0,0,2.45,2.09l1.25.55-1.15.75a5.87,5.87,0,0,0-2.09,2.46l-.56,1.25-.75-1.15a5.79,5.79,0,0,0-2.45-2.09l-1.25-.56,1.15-.75A5.79,5.79,0,0,0,390.53,116.32Z" style="fill:#FFBA00"></path><path d="M305.71,107.9l.56-1.25.75,1.14a5.72,5.72,0,0,0,2.45,2.09l1.25.56-1.14.75a5.65,5.65,0,0,0-2.09,2.45l-.56,1.25-.75-1.14a5.69,5.69,0,0,0-2.46-2.09l-1.24-.56,1.14-.75A5.72,5.72,0,0,0,305.71,107.9Z" style="fill:#FFBA00"></path><path d="M411.88,298.31s.32,0,.94-.08a6.11,6.11,0,0,0,1.16-.13l.73-.12.83-.22a13.42,13.42,0,0,0,4.08-1.82,14.36,14.36,0,0,0,5.8-7.6,14.25,14.25,0,0,0,.66-3.94c0-.7,0-1.43,0-2.15l-.06-1.1c0-.37-.11-.74-.17-1.11a14.64,14.64,0,0,0-1.59-4.41,14.19,14.19,0,0,0-7.87-6.48,16,16,0,0,0-5.61-.74h-6.06l-129.39.08a14.12,14.12,0,0,0-8.6,2.93,14.89,14.89,0,0,0-3.12,3.32,14.18,14.18,0,0,0-1.87,4.12,15.53,15.53,0,0,0-.43,2.22c0,.75-.1,1.5-.08,2.27a15,15,0,0,0,.54,4.44,14.69,14.69,0,0,0,1.85,4,15.21,15.21,0,0,0,3,3.21,13.68,13.68,0,0,0,3.8,2.13,15.3,15.3,0,0,0,2.07.61,15.74,15.74,0,0,0,2.15.25c2.89.07,5.81,0,8.67,0h16.81l58.17.05,39.22.09,10.66.05,2.78,0,.94,0s-.32,0-.94,0l-2.78,0-10.66.05-39.22.08-58.17.06H283.3c-2.87,0-5.75,0-8.7,0a16.76,16.76,0,0,1-2.22-.25,16.09,16.09,0,0,1-2.15-.64,14,14,0,0,1-3.93-2.2,14.39,14.39,0,0,1-5-7.49,15.76,15.76,0,0,1-.56-4.58c0-.76,0-1.55.08-2.32a16.4,16.4,0,0,1,.45-2.3,14.89,14.89,0,0,1,1.94-4.28,15.11,15.11,0,0,1,3.24-3.44,14.61,14.61,0,0,1,8.91-3l129.39.07h6.06a16.74,16.74,0,0,1,5.72.77,14.55,14.55,0,0,1,8,6.65,14.81,14.81,0,0,1,1.61,4.51l.17,1.13c0,.38,0,.75,0,1.12,0,.74,0,1.45,0,2.17a14.69,14.69,0,0,1-.69,4,15,15,0,0,1-1.59,3.32,14.2,14.2,0,0,1-4.34,4.34,13.78,13.78,0,0,1-4.14,1.8l-.84.2-.74.11a6.85,6.85,0,0,1-1.16.11Z" style="fill:#263238"></path><rect x="260.97" y="304.74" width="165.26" height="30.07" rx="14.35" style="fill:#FFBA00"></rect><path d="M294.15,289.27a6.76,6.76,0,0,1,0-.89c0-.62,0-1.43-.05-2.43,0-2.14-.06-5.1-.11-8.67l.21.2-17.87.06.26-.26h0v3.14c0,1,0,2.06,0,3.06,0,2,0,3.94,0,5.77l-.24-.24,12.81.12,3.7.06,1,0,.36,0a9.6,9.6,0,0,1-1.26.06l-3.65.06-13,.12H276v-.24c0-1.83,0-3.76,0-5.77,0-1,0-2,0-3.06V277.3h0c-.23.23.32-.32.26-.27l17.87.06h.21v.21c-.05,3.63-.09,6.63-.11,8.8,0,1,0,1.78-.06,2.39A5.74,5.74,0,0,1,294.15,289.27Z" style="fill:#263238"></path><path d="M294.15,277.28a23.64,23.64,0,0,1-2.5,2.4c-1.58,1.44-3.8,3.39-6.26,5.53H285v0l0,0-.06-.05-.12-.1-.23-.2-.45-.39-.88-.77-1.67-1.47-2.8-2.5a23.64,23.64,0,0,1-2.5-2.4A21.9,21.9,0,0,1,279,279.4l2.87,2.42,1.69,1.44.89.76.46.4.22.2.12.09.06.05,0,0H285c2.47-2.13,4.72-4,6.37-5.41A21.9,21.9,0,0,1,294.15,277.28Z" style="fill:#263238"></path><path d="M282.73,282.86a19.29,19.29,0,0,1-3,3.39,20.16,20.16,0,0,1-3.41,3,20.24,20.24,0,0,1,3-3.39A20.61,20.61,0,0,1,282.73,282.86Z" style="fill:#263238"></path><path d="M294.15,289.27a19.58,19.58,0,0,1-3.21-3.22,20.47,20.47,0,0,1-2.82-3.56,20.13,20.13,0,0,1,3.21,3.22A19.9,19.9,0,0,1,294.15,289.27Z" style="fill:#263238"></path><path d="M304.94,285.67v.4h-4.15v-6h4v.4h-3.58v2.37h3.2v.39h-3.2v2.46Z" style="fill:#263238"></path><path d="M313.77,283.45v2.62h-.43v-2.59c0-1-.53-1.55-1.4-1.55a1.58,1.58,0,0,0-1.64,1.75v2.39h-.43v-2.59c0-1-.53-1.55-1.4-1.55a1.58,1.58,0,0,0-1.64,1.75v2.39h-.43v-4.49h.41v1a1.78,1.78,0,0,1,1.72-1,1.59,1.59,0,0,1,1.64,1.08,1.89,1.89,0,0,1,1.81-1.08A1.68,1.68,0,0,1,313.77,283.45Z" style="fill:#263238"></path><path d="M318.77,283.22v2.85h-.41v-.8a1.75,1.75,0,0,1-1.62.83c-1,0-1.61-.51-1.61-1.28s.43-1.25,1.67-1.25h1.54v-.36a1.17,1.17,0,0,0-1.33-1.28,2.36,2.36,0,0,0-1.55.56l-.21-.31a2.74,2.74,0,0,1,1.79-.63A1.52,1.52,0,0,1,318.77,283.22Zm-.43,1.52v-.84h-1.53c-.93,0-1.25.39-1.25.9s.45.95,1.24.95A1.54,1.54,0,0,0,318.34,284.74Z" style="fill:#263238"></path><path d="M320.4,280.15a.35.35,0,0,1,.35-.35.35.35,0,1,1-.35.35Zm.13,1.43H321v4.49h-.43Z" style="fill:#263238"></path><path d="M322.77,279.69h.43v6.38h-.43Z" style="fill:#263238"></path><path d="M310.67,323.81l-1.62-2.27a4.77,4.77,0,0,1-.66,0h-1.94v2.22H306V317h2.43c1.7,0,2.73.85,2.73,2.29a2.08,2.08,0,0,1-1.59,2.12l1.7,2.37Zm-2.28-2.65c1.45,0,2.23-.68,2.23-1.84s-.78-1.85-2.23-1.85h-1.94v3.69Z" style="fill:#fff"></path><path d="M317.05,321.4H312.7a2,2,0,0,0,2.14,2,2.06,2.06,0,0,0,1.62-.7l.28.32a2.41,2.41,0,0,1-1.91.82,2.48,2.48,0,0,1-2.6-2.57,2.42,2.42,0,1,1,4.83,0S317.05,321.35,317.05,321.4Zm-4.34-.38h3.88a1.94,1.94,0,0,0-3.88,0Z" style="fill:#fff"></path><path d="M317.82,323.2l.22-.39a3,3,0,0,0,1.82.61c1.07,0,1.5-.37,1.5-.95,0-1.47-3.36-.38-3.36-2.37,0-.76.64-1.38,1.92-1.38a3.13,3.13,0,0,1,1.74.49l-.23.39a2.6,2.6,0,0,0-1.52-.46c-1,0-1.42.41-1.42.95,0,1.52,3.35.45,3.35,2.38,0,.82-.71,1.38-2,1.38A3.16,3.16,0,0,1,317.82,323.2Z" style="fill:#fff"></path><path d="M327.47,321.4h-4.35a2,2,0,0,0,2.14,2,2.06,2.06,0,0,0,1.62-.7l.28.32a2.43,2.43,0,0,1-1.91.82,2.49,2.49,0,0,1-2.61-2.57,2.42,2.42,0,0,1,2.43-2.56,2.39,2.39,0,0,1,2.41,2.54S327.47,321.35,327.47,321.4Zm-4.34-.38H327a1.94,1.94,0,0,0-3.87,0Z" style="fill:#fff"></path><path d="M331.49,323.49a1.55,1.55,0,0,1-1,.36,1.25,1.25,0,0,1-1.37-1.38v-3.3h-.93v-.42h.93v-1.1h.48v1.1h1.61v.42h-1.61v3.26c0,.65.32,1,.94,1a1.16,1.16,0,0,0,.79-.28Z" style="fill:#fff"></path><path d="M340.65,319.32c0,1.42-1,2.27-2.73,2.27H336v2.22h-.5V317h2.44C339.62,317,340.65,317.88,340.65,319.32Zm-.5,0c0-1.18-.78-1.85-2.23-1.85H336v3.68h1.94C339.37,321.15,340.15,320.48,340.15,319.32Z" style="fill:#fff"></path><path d="M345.77,320.6v3.21h-.47v-.9a1.94,1.94,0,0,1-1.82.94c-1.13,0-1.82-.58-1.82-1.44s.48-1.42,1.89-1.42h1.73v-.4a1.32,1.32,0,0,0-1.5-1.45,2.63,2.63,0,0,0-1.75.64l-.24-.35a3.13,3.13,0,0,1,2-.71A1.72,1.72,0,0,1,345.77,320.6Zm-.49,1.72v-.95h-1.72c-1.05,0-1.42.44-1.42,1s.51,1.06,1.41,1.06A1.72,1.72,0,0,0,345.28,322.32Z" style="fill:#fff"></path><path d="M347,323.2l.22-.39a2.93,2.93,0,0,0,1.82.61c1.07,0,1.49-.37,1.49-.95,0-1.47-3.35-.38-3.35-2.37,0-.76.64-1.38,1.92-1.38a3.07,3.07,0,0,1,1.73.49l-.22.39a2.62,2.62,0,0,0-1.52-.46c-1,0-1.43.41-1.43.95,0,1.52,3.36.45,3.36,2.38,0,.82-.71,1.38-2,1.38A3.14,3.14,0,0,1,347,323.2Z" style="fill:#fff"></path><path d="M351.65,323.2l.22-.39a3,3,0,0,0,1.82.61c1.07,0,1.5-.37,1.5-.95,0-1.47-3.36-.38-3.36-2.37,0-.76.64-1.38,1.92-1.38a3.13,3.13,0,0,1,1.74.49l-.23.39a2.6,2.6,0,0,0-1.52-.46c-1,0-1.42.41-1.42.95,0,1.52,3.35.45,3.35,2.38,0,.82-.71,1.38-2,1.38A3.16,3.16,0,0,1,351.65,323.2Z" style="fill:#fff"></path><path d="M364.16,318.75l-1.92,5.06h-.46l-1.7-4.39-1.72,4.39h-.44L356,318.75h.46l1.69,4.52,1.73-4.52h.41l1.72,4.51,1.7-4.51Z" style="fill:#fff"></path><path d="M364.59,321.28a2.53,2.53,0,1,1,2.52,2.57A2.45,2.45,0,0,1,364.59,321.28Zm4.56,0a2,2,0,1,0-2,2.13A2,2,0,0,0,369.15,321.28Z" style="fill:#fff"></path><path d="M373.54,318.72v.47h-.12c-1.12,0-1.79.75-1.79,2v2.63h-.48v-5.06h.46v1.11A1.92,1.92,0,0,1,373.54,318.72Z" style="fill:#fff"></path><path d="M379.32,316.62v7.19h-.47v-1.19a2.25,2.25,0,0,1-2.07,1.23,2.57,2.57,0,0,1,0-5.13,2.26,2.26,0,0,1,2.06,1.21v-3.31Zm-.48,4.66a2,2,0,1,0-2,2.13A2,2,0,0,0,378.84,321.28Z" style="fill:#fff"></path><path d="M443.84,63.08c0,.14-46.23.26-103.25.26s-103.25-.12-103.25-.26,46.22-.26,103.25-.26S443.84,62.94,443.84,63.08Z" style="fill:#263238"></path><path d="M249,54.88a2.51,2.51,0,1,1-2.51-2.52A2.51,2.51,0,0,1,249,54.88Z" style="fill:#263238"></path><path d="M256.26,54.88a2.51,2.51,0,1,1-2.51-2.52A2.51,2.51,0,0,1,256.26,54.88Z" style="fill:#263238"></path><path d="M263.48,54.88A2.51,2.51,0,1,1,261,52.36,2.51,2.51,0,0,1,263.48,54.88Z" style="fill:#263238"></path><path d="M444.21,360.5c0-2.14-.1-128.94-.24-313.38l.24.24-206.79,0h0l.26-.26c0,118.26,0,227.29-.06,313.38l-.2-.2,206.81.2-206.81.21h-.21v-.21c0-86.09,0-195.12-.05-313.38v-.26h.28l206.79,0h.24v.24C444.31,231.56,444.21,358.37,444.21,360.5Z" style="fill:#263238"></path></g></svg>