<svg xmlns="http://www.w3.org/2000/svg" viewBox="0 0 500 500"><g id="freepik--Floor--inject-162"><ellipse id="freepik--floor--inject-162" cx="249.81" cy="348.83" rx="231.54" ry="133.68" style="fill:#f0f0f0"></ellipse></g><g id="freepik--Shadows--inject-162"><path id="freepik--Shadow--inject-162" d="M323.9,384.07a12.67,12.67,0,0,0-1.85-6.5h0c-.25-.42-.51-.82-.79-1.21l-.05-.06a12.81,12.81,0,0,0-.86-1.06l-.09-.09a11.36,11.36,0,0,0-.93-.91l-.09-.07a9.09,9.09,0,0,0-1-.76l-.6-.33-.27-.12-.31-.14a4.43,4.43,0,0,0-.44-.14l-.12,0a3.39,3.39,0,0,0-.52-.1h0a3.27,3.27,0,0,0-1.91.3h0c-5.29,2.65-35.77,22.05-49.8,30.79l-6.95,4.22a1.58,1.58,0,0,0-.52.48.35.35,0,0,1-.05.08,2.11,2.11,0,0,0-.16.3,1.29,1.29,0,0,0-.07.21,2.13,2.13,0,0,0-.08.27l0,.18-1.15.63-1,.56a40.06,40.06,0,0,0-7.92-5.88c-9.62-5.55-22.36-8.61-35.88-8.61s-26.26,3.06-35.88,8.61c-10,5.75-15.44,13.52-15.44,21.87s5.48,16.11,15.44,21.87c9.62,5.55,22.36,8.6,35.88,8.6s26.26-3.05,35.88-8.6c10-5.76,15.44-13.52,15.44-21.87a20.11,20.11,0,0,0-3.26-10.81l.92-.49a2.07,2.07,0,0,0,2,.19l0,0c4.76-2.62,51.16-22.4,60.65-27.49h0C323.12,387.32,323.83,386,323.9,384.07Zm-82,56.74c-8.3,4.79-19.49,7.43-31.49,7.43s-23.19-2.64-31.49-7.43c-7.13-4.12-11.06-9.19-11.06-14.27s3.93-10.16,11.06-14.27c8.3-4.8,19.48-7.44,31.49-7.44s23.19,2.64,31.49,7.44c7.13,4.11,11.06,9.18,11.06,14.27S249,436.69,241.85,440.81Z" style="fill:#e0e0e0"></path><path id="freepik--shadow--inject-162" d="M331,266.6l-47.06-27.23a9.57,9.57,0,0,0-8.66,0l-239.09,138c-2.39,1.38-2.39,3.62,0,5l47.07,27.23a9.57,9.57,0,0,0,8.66,0l89.59-51.73,13.78,8c7.29,4.21,19.11,4.21,26.41,0l41.05-23.53c7.3-4.21,7.3-11,0-15.25l-13.77-8,82-47.54C333.38,270.22,333.38,268,331,266.6Z" style="fill:#e0e0e0"></path><ellipse id="freepik--shadow--inject-162" cx="409.94" cy="368.86" rx="46.15" ry="26.65" style="fill:#e0e0e0"></ellipse></g><g id="freepik--Plant--inject-162"><g id="freepik--Plants--inject-162"><path d="M436.16,338.77c0-6.25-1.24-17.76,4-28.56,3.84-7.83,10.69-15.43,17.07-14.67,5.93.7,6.47,9.83.79,16.08s-12.9,14.9-14.48,28.71l-4.09,10.26Z" style="fill:#E79011"></path><g style="opacity:0.2"><path d="M436.16,338.77c0-6.25-1.24-17.76,4-28.56,3.84-7.83,10.69-15.43,17.07-14.67,5.93.7,6.47,9.83.79,16.08s-12.9,14.9-14.48,28.71l-4.09,10.26Z"></path></g><path d="M438.29,343.16a.45.45,0,0,0,.36-.45c-.72-17.76,5.06-32.51,16.71-42.64a.43.43,0,1,0-.57-.65c-11.86,10.31-17.74,25.29-17,43.33a.44.44,0,0,0,.45.42Z" style="fill:#fff"></path><path d="M435,361.1a22.06,22.06,0,0,0,11,3.06c6.69.16,9.16-3.36,9.16-3.36s-3.41-5.79-7.35-7a36.94,36.94,0,0,1,12,3.13s4-.47,4.78-6.79c0,0-2.86-3.35-11.07-4.27a26.45,26.45,0,0,1,11.87-1c.55.14,1.72-8,1.91-11.78s-1.27-3.49-4.21-3.87-12.66.44-14.23,2.24-1.75,7.26-1.75,7.26-2.11-2.8-2.06-5.55a10.26,10.26,0,0,0-6,1c-3,1.54-4,2.77-4.16,5.1s-.35,5.83.59,8.54c0,0-2.77-4.47-2.63-8.35A41.34,41.34,0,0,0,430,345.3C428.69,348.7,430.24,356.93,435,361.1Z" style="fill:#E79011"></path><path d="M435.14,361.52a.42.42,0,0,0,.3-.28c3.8-11.67,21.71-27,28.55-29.34a.42.42,0,0,0,.27-.55.42.42,0,0,0-.55-.27c-7,2.35-25.22,18-29.1,29.89a.44.44,0,0,0,.28.55A.43.43,0,0,0,435.14,361.52Z" style="fill:#fff"></path></g></g><g id="freepik--Device--inject-162"><g id="freepik--device--inject-162"><g id="freepik--Monitor--inject-162"><path d="M221.68,362l35.38-20.46c3.64-2.1,5.46-4.86,5.46-7.62s0-4.92,0-4.92l-33.29-18.89a7.82,7.82,0,0,1-3.52-6.1V260.34L164,296.05v43.61a7.77,7.77,0,0,0,3.53,6.1L195.27,362C202.56,366.16,214.39,366.16,221.68,362Z" style="fill:#37474f"></path><path d="M178.78,347.38v4.9l-11.32-6.52a7.79,7.79,0,0,1-3.52-6.1V296.05l11.77-6.79c.24,3,.51,6.08.75,9.09l-8.25,4.77V337.2a7.73,7.73,0,0,0,3.52,6.1Z" style="fill:#263238"></path><path d="M168.21,337.21a7.79,7.79,0,0,0,3.52,6.1L195.27,357c7.29,4.21,19.11,4.21,26.41,0l35.39-20.45c7.29-4.21,7.29-11,0-15.24L233.52,307.6a7.77,7.77,0,0,1-3.53-6.1V267.42l-61.78,35.71Z" style="fill:#455a64"></path><path d="M240.69,311.75h0l-7.17-4.14a7.77,7.77,0,0,1-3.53-6.1V267.42l-61.78,35.71v34.08a7.79,7.79,0,0,0,3.52,6.1l7.05,4.06Z" style="opacity:0.15"></path><path d="M262.53,329v4.92c0,2.77-1.83,5.51-5.47,7.63l-35.38,20.44a26.47,26.47,0,0,1-12.6,3.13v-4.9a26.47,26.47,0,0,0,12.6-3.13l35.38-20.46C260.7,334.48,262.53,331.72,262.53,329Z" style="fill:#37474f"></path><path d="M69,384.26a9.47,9.47,0,0,0,8.53-.16l239-138a9.71,9.71,0,0,0,4.4-7.62V29.37a9.43,9.43,0,0,0-4.13-7.46,9.44,9.44,0,0,0-8.53.15l-239,138a9.73,9.73,0,0,0-4.4,7.62V376.79A9.45,9.45,0,0,0,69,384.26Z" style="fill:#455a64"></path><path d="M77.53,384.09l239-137.95a9.73,9.73,0,0,0,4.4-7.62V29.37c0-2.81-2-3.95-4.4-2.54l-238.95,138a9.73,9.73,0,0,0-4.4,7.62V381.55C73.13,384.36,75.1,385.5,77.53,384.09Z" style="fill:#37474f"></path><path d="M81.39,353.92V175.14A5.83,5.83,0,0,1,84,170.57L310,40.12c1.45-.84,2.64-.16,2.64,1.52V220.43A5.8,5.8,0,0,1,310,225L84,355.45C82.57,356.29,81.39,355.61,81.39,353.92Z" style="fill:#E79011"></path><path d="M81.39,353.92V175.14A5.83,5.83,0,0,1,84,170.57L310,40.12c1.45-.84,2.64-.16,2.64,1.52V220.43A5.8,5.8,0,0,1,310,225L84,355.45C82.57,356.29,81.39,355.61,81.39,353.92Z" style="fill:#fff;opacity:0.7000000000000001"></path><path d="M196.55,306.65a2.6,2.6,0,0,1-1.32-.34,3.38,3.38,0,0,1-1.46-3.11,9.53,9.53,0,0,1,4.38-7.58h0a3,3,0,0,1,4.88,2.81,9.54,9.54,0,0,1-4.38,7.59A4.25,4.25,0,0,1,196.55,306.65ZM200.24,296a3.28,3.28,0,0,0-1.59.5h0a8.59,8.59,0,0,0-3.88,6.72,2,2,0,0,0,3.38,1.95,8.58,8.58,0,0,0,3.88-6.72,2.45,2.45,0,0,0-1-2.24A1.63,1.63,0,0,0,200.24,296Z" style="fill:#E79011"></path></g></g></g><g id="freepik--magnifying-glass--inject-162"><g id="freepik--Glass--inject-162"><path d="M324.69,366.68A13.35,13.35,0,0,0,319,356c-1.62-1-3.11-1.15-4.22-.58h0c-6.69,3.36-53.7,33.51-56.71,35l0,0a2.13,2.13,0,0,0-1,1.94,6.72,6.72,0,0,0,2.86,5.37,2.11,2.11,0,0,0,2.15.28l0,0c4.76-2.62,51.17-22.4,60.65-27.48h0C323.91,369.93,324.63,368.6,324.69,366.68Z" style="fill:#E79011"></path><path d="M322.84,360.18A12,12,0,0,0,319,356c-1.61-1-3.1-1.15-4.2-.59l-.14.07c-6.11,3.13-41.1,25.45-52.87,32.71l-.08,0-.48.3-.14.09-.27.16-.32.19,0,0c-1.24.76-2.09,1.25-2.41,1.41l0,0a1.44,1.44,0,0,0-.27.22,2.32,2.32,0,0,0-.68,1.72,5,5,0,0,0,0,.67c0,.09,0,.18,0,.27s0,.27.08.41l.09.33c0,.13.08.25.13.38a2.47,2.47,0,0,0,.1.29s0,0,0,0Z" style="opacity:0.1"></path><path d="M259.94,397.75a6.67,6.67,0,0,1-2.85-5.35c.06-1.93,1.44-2.67,3.09-1.65A6.73,6.73,0,0,1,263,396.1C263,398,261.58,398.77,259.94,397.75Z" style="fill:#E79011"></path><path d="M245.89,399.05a5.16,5.16,0,0,0,2.19,4.11,1.67,1.67,0,0,0,1.64.22h0l11.38-6.05h0a1.64,1.64,0,0,0,.72-1.48,5.16,5.16,0,0,0-2.19-4.11,1.64,1.64,0,0,0-1.64-.21h0l-11.37,6.05h0A1.65,1.65,0,0,0,245.89,399.05Z" style="fill:#37474f"></path><path d="M246.63,397.56a1.65,1.65,0,0,0-.74,1.49,4.43,4.43,0,0,0,.34,1.75L260.9,393a4.44,4.44,0,0,0-1.26-1.26,1.64,1.64,0,0,0-1.64-.21l-11.37,6.05Z" style="fill:#263238"></path><path d="M260.48,409.14c0-7.29-4.82-14.57-14.45-20.13-19.26-11.12-50.49-11.12-69.75,0-9.63,5.56-14.45,12.84-14.45,20.13h0v13.43c0,7.28,4.82,14.57,14.45,20.13,19.26,11.12,50.49,11.12,69.75,0,9.63-5.56,14.45-12.85,14.45-20.13V409.14Zm-81.81-16c8.6-5,20.14-7.7,32.49-7.7s23.89,2.73,32.49,7.7c7.78,4.49,12.06,10.17,12.06,16s-4.28,11.52-12.06,16c-8.6,5-20.14,7.7-32.49,7.7s-23.89-2.74-32.49-7.7c-7.78-4.49-12.07-10.18-12.07-16S170.89,397.63,178.67,393.14Z" style="fill:#E79011"></path><path d="M176.28,429.28c19.26,11.12,50.49,11.12,69.75,0s19.26-29.15,0-40.27-50.49-11.12-69.75,0S157,418.16,176.28,429.28Zm-9.68-20.14c0-5.83,4.28-11.51,12.06-16,8.6-5,20.14-7.7,32.49-7.7s23.89,2.73,32.5,7.7c7.77,4.49,12.06,10.17,12.06,16s-4.29,11.52-12.06,16c-8.61,5-20.15,7.7-32.5,7.7s-23.89-2.74-32.49-7.7C170.89,420.66,166.6,415,166.6,409.14Z" style="fill:#fff;opacity:0.30000000000000004"></path><path d="M166.6,409.14a13.34,13.34,0,0,0,1.92,6.72c2-3.39,5.4-6.57,10.15-9.3,8.59-5,20.13-7.7,32.49-7.7s23.89,2.73,32.48,7.7c4.74,2.73,8.19,5.91,10.15,9.3a13.34,13.34,0,0,0,1.92-6.72c0-5.83-4.28-11.51-12.07-16-8.59-5-20.14-7.7-32.48-7.7s-23.9,2.74-32.49,7.7C170.88,397.63,166.6,403.31,166.6,409.14Z" style="fill:#E79011"></path><path d="M166.6,409.14a13.34,13.34,0,0,0,1.92,6.72c2-3.39,5.4-6.57,10.15-9.3,8.59-5,20.13-7.7,32.49-7.7s23.89,2.73,32.48,7.7c4.74,2.73,8.19,5.91,10.15,9.3a13.34,13.34,0,0,0,1.92-6.72c0-5.83-4.28-11.51-12.07-16-8.59-5-20.14-7.7-32.48-7.7s-23.9,2.74-32.49,7.7C170.88,397.63,166.6,403.31,166.6,409.14Z" style="opacity:0.1"></path><path d="M178.66,399.21c8.6-5,20.14-7.7,32.49-7.7s23.89,2.74,32.5,7.7c6.41,3.71,10.44,8.23,11.66,13-1.22,4.74-5.25,9.26-11.66,13-8.61,5-20.15,7.7-32.5,7.7s-23.89-2.74-32.49-7.7c-6.42-3.71-10.45-8.23-11.66-13C168.21,407.44,172.24,402.92,178.66,399.21Z" style="fill:#fff;opacity:0.4"></path><path d="M199.53,436.83v13.41a64.43,64.43,0,0,1-23.25-7.54c-9.63-5.56-14.45-12.85-14.45-20.14V409.14a17,17,0,0,1,.59-4.4h0c-2.34,8.67,2.28,17.85,13.85,24.54A65,65,0,0,0,199.53,436.83Z" style="opacity:0.1"></path></g></g><g id="freepik--Character--inject-162"><g id="freepik--character--inject-162"><path d="M434.61,354.86c.59.24.71,1.36.75,3.59,0,1.69.32,4.65-1.66,5.19s-4.88.18-6.11-1.44c-1.54-2-2.57-3.79-4.77-6.27-1.91-2.14-4-4.15-4.71-7.11-.65-2.68,0-3.82,1.81-4.56,2.52-1,6.36,2.56,8.31,3.15C429.9,347.92,434,354.62,434.61,354.86Z" style="fill:#263238"></path><path d="M434.66,352.8l-.06,2.73a6.68,6.68,0,0,1-6.92,0c-.12-.26-.63-3.93-.63-3.93Z" style="fill:#ffa8a7"></path><path d="M412.09,370.14s.73,2.4,1.11,4.49c.3,1.66.72,4.44.11,5.67s-2.89,2-6.39,1.88c-2.27-.07-5.84,1.39-8.3,2.69s-7.75,1.78-10.39,1.41c-3.11-.44-6.3-2.32-6.77-3.62s.22-2.63,7.64-5.6c.07,0,10.3-3.1,13.94-6.94Z" style="fill:#263238"></path><path d="M412.16,367.18s-.06,2-.08,3.19-1.42,2.86-5,2.65c-2.49-.14-4.22-.85-4.07-2.9l.07-3Z" style="fill:#ffa8a7"></path><path d="M437.26,316.51a74.16,74.16,0,0,0-2.91-14.33s1.25-12.28,2-23.94c.79-12.58,1.53-19.06-.95-37.24,0,0-38.59-3.47-39.64,11.08s.44,51.67.78,58.08,1.31,12.09,2.4,22.49,4.19,34.51,4.19,34.51a9.63,9.63,0,0,0,9.05,0s3.51-29.06,3.38-36.44a63.29,63.29,0,0,0-2.44-16.18s1-12,2-22.42,1.75-15.43,2-20l.88-.41s.49,18,.83,24.44,1.21,12.57,2.79,24.49C423,331,427.24,353,427.24,353c4.59,2.61,7.42-.16,7.42-.16S438.31,325.48,437.26,316.51Z" style="fill:#37474f"></path><path d="M417.07,272.17s10-4.64,15-8.91c0,0-4.72,6.35-10.8,9.08,0,0-2.65,22.34-2.63,21.89l-.74-22.07Z" style="fill:#263238"></path><polygon points="410.16 189.15 411.66 202.47 424.24 201.84 422.85 186.29 410.16 189.15" style="fill:#ffa8a7"></polygon><path d="M429,194.25c4.68-.22,7.06.49,9.17,4.53s2.92,16.11,3.66,22.34.91,10.61-1.65,11.25-12.54.92-12.54.92Z" style="fill:#37474f"></path><path d="M436.89,201.15c-.67-3.72-5.58-7.64-10.17-6.9l-3.11.53c-.55,2.24-6.69,3.64-12.56,2.26-1.77.47-7.59,1.56-9.07,2.05-4.21,1.4-6,5.55-6.61,19.3,0,0,.34,31.15.17,37.35,10.41,4.4,21.34,4.51,27.41,3.33,12.64-2.46,14.27-7.64,14.27-7.64l-1.88-14.25S438.43,209.59,436.89,201.15Z" style="fill:#455a64"></path><path d="M410.65,193.54l.1.84a18.63,18.63,0,0,0,7.72,0c4.09-.91,4.92-2.06,4.92-2.06l-.09-1s1-.37,1.55,1.19a18.37,18.37,0,0,1,.6,1.91s.47,2.87-4.34,4.33a14.89,14.89,0,0,1-12-1.31l-1.88.4s1.63-3.76,2.12-4.52a1.25,1.25,0,0,1,1.18-.66Z" style="fill:#37474f"></path><polygon points="372.24 179.25 347.29 192.28 359.69 226.17 382.97 213.13 372.24 179.25" style="fill:#455a64"></polygon><polygon points="371.1 182.57 350.16 193.5 361.14 222.64 380.67 211.7 371.1 182.57" style="fill:#f5f5f5"></polygon><path d="M366.68,185.72s-.18-.47-.41-1-2-.23-3.89.76l-3.68,1.91c-1.93,1-3.31,2.26-3.08,2.83l.4,1Z" style="opacity:0.15"></path><path d="M366.27,181.57c-.13-.36-.89-.3-1.69.13l-1.44.78s-.89-2.24-4.21-.69-2.56,4.15-2.56,4.15l-1.53.84c-.85.47-1.45,1.14-1.35,1.5l.19.66,12.85-6.7Z" style="fill:#E79011"></path><path d="M364.89,183.07c-1.2.59-1.67.88-1.33,1.76s.76,1.73.76,1.73l-5.68,3s-.47-1.28-.68-1.77-.63-.73-1.53-.26l-.34-.36,9-4.57Z" style="fill:#E79011"></path><path d="M364.89,183.07c-1.2.59-1.67.88-1.33,1.76s.76,1.73.76,1.73l-5.68,3s-.47-1.28-.68-1.77-.63-.73-1.53-.26l-.34-.36,9-4.57Z" style="opacity:0.30000000000000004"></path><path d="M366.92,185.77l-.4-1c-.23-.58-2-.24-3.89.76l-3.69,1.9c-1.92,1-3.3,2.26-3.08,2.84l.41,1Z" style="fill:#E79011"></path><path d="M402,199.09c-5.76.5-8.21,1.55-12.53,9.34-4.7,8.47-13.72,23.78-14.86,25.72-1.59,2.69-1.89,6.78-.52,9.25,1.28,2.31,5.35,3.36,10-1.85,5.49-6.2,15.7-21.34,15.7-21.34S408.41,208.77,402,199.09Z" style="fill:#ffa8a7"></path><path d="M376.46,245.17c-4.42-.53-14.73-14.52-17.66-19.09a32.59,32.59,0,0,0-8.94-9.43c-4.67-3.45-4-8.76-1.95-13.62.7-1.68,3.1-.59,3.1-.59l.84,2.31,1.46,4c1,.92,1.56,1.22,1.62.95.13-.52-.72-2.67-.7-4.91,0-2.69,1.91-.92,2.47,0a32.52,32.52,0,0,1,2,4.45c.94,2.41.56,4.85,1.7,6.49s16.53,16.39,16.53,16.39Z" style="fill:#ffa8a7"></path><path d="M403.09,198.78c-3.49-.08-7.68.48-10.93,4.7s-16.25,27.16-16.25,27.16l-7.29-6.54A12.71,12.71,0,0,0,363,232a79.49,79.49,0,0,0,6.6,9c3.09,3.38,6.53,5.73,9.35,4.69s5.7-3.27,11.77-11.73,12.7-18.43,12.7-18.43S407.61,205.79,403.09,198.78Z" style="fill:#37474f"></path><path d="M401.29,172.84s-3.14,4.76-2.78,5.23,2.67.89,2.67.89Z" style="fill:#f28f8f"></path><path d="M402.76,175.9a3.75,3.75,0,1,1,3.75-3.74A3.75,3.75,0,0,1,402.76,175.9Zm0-6.66a2.92,2.92,0,1,0,2.91,2.92A2.92,2.92,0,0,0,402.76,169.24Z" style="fill:#263238"></path><path d="M410,159.65c-6.36,1.34-8.2,4.14-8.8,14.23-.62,10.56.46,13.87,1.84,15.29.94,1,6.14,1.14,8.76.41,3.29-.9,10.71-3.53,14.18-8.84,4.09-6.24,5.16-14.71.79-18.18C420.63,157.67,412.6,159.1,410,159.65Z" style="fill:#ffa8a7"></path><path d="M410.24,189.88l-.3-1.94a12.5,12.5,0,0,1-6.51,1.47C404.64,190,407.8,190.18,410.24,189.88Z" style="fill:#f28f8f"></path><polygon points="399.37 171.37 410.67 172.84 410.22 173.63 399.37 172.22 399.37 171.37" style="fill:#263238"></polygon><path d="M400.14,163.73a3.68,3.68,0,0,0,1.44-.09,2.26,2.26,0,0,0,.77,2.65,3.22,3.22,0,0,0,2.85.38,2.74,2.74,0,0,0-.31,2,3.18,3.18,0,0,0,3.29,2.38c.07,1.48.09,2.92,1.66,3.59,0,0,1-3.9,4.3-3.41s3.75,4.71,1.67,7.28-4,1.59-4,1.58c.19.09.26,1.34.32,1.57a11.92,11.92,0,0,0,.85,2.14,10.17,10.17,0,0,0,3,3.48,7.32,7.32,0,0,0,6,1.66,6.45,6.45,0,0,0,4.35-3.49,3.66,3.66,0,0,1,.7-1.27,4.21,4.21,0,0,1,1.62-.7,4.76,4.76,0,0,0,2.7-6.72,4.37,4.37,0,0,0,1.67-7.62,5.25,5.25,0,0,0,2.25-5.68,5.33,5.33,0,0,0-3.76-3.6c-1.29-.37-.79-.57-1.19-1.83a4.69,4.69,0,0,0-1.48-2.21,4.74,4.74,0,0,0-4.37-.81,4.44,4.44,0,0,0-3.18-3.41,4.26,4.26,0,0,0-2.24-.09c-.53.13-1.61.62-1.81,1.13-.67-.66-.89-1.53-1.7-2.12a4.83,4.83,0,0,0-7.1,1.51,5.92,5.92,0,0,0-4.44-1.86,4.85,4.85,0,0,0-4.05,2.47,4.12,4.12,0,0,0,.55,4.62,4.79,4.79,0,0,0-2.46,2.12,3,3,0,0,0,.35,3.32,2.56,2.56,0,0,0,1.24.93A4,4,0,0,0,400.14,163.73Z" style="fill:#263238"></path><path d="M409.78,176.83l.11-4.42a2.21,2.21,0,0,0-.11,4.42Z" style="fill:#263238"></path></g></g></svg>