<?xml version="1.0" standalone="no"?>
<!DOCTYPE svg PUBLIC "-//W3C//DTD SVG 20010904//EN"
 "http://www.w3.org/TR/2001/REC-SVG-20010904/DTD/svg10.dtd">
<svg version="1.0" xmlns="http://www.w3.org/2000/svg"
 width="178.000000pt" height="178.000000pt" viewBox="0 0 178.000000 178.000000"
 preserveAspectRatio="xMidYMid meet">
<metadata>
Created by potrace 1.14, written by Peter Selinger 2001-2017
</metadata>
<g transform="translate(0.000000,178.000000) scale(0.100000,-0.100000)"
fill="#000000" stroke="none">
<path d="M528 1272 l-328 -327 0 -45 0 -45 328 -327 327 -328 45 0 c44 0 44 0
247 203 l204 202 -81 5 -81 5 -50 115 c-27 63 -49 120 -49 126 0 17 -24 34
-36 26 -6 -4 -9 -61 -9 -140 l0 -132 -47 -1 c-61 -1 -95 -1 -108 0 -6 1 -10
132 -10 371 l0 370 158 0 157 0 -126 125 c-123 121 -128 125 -170 125 l-43 0
-328 -328z m95 -91 c10 -1 29 -12 42 -26 l25 -24 0 27 0 28 73 -2 c39 -1 75
-2 79 -3 4 0 8 -165 7 -366 l0 -366 -81 3 -81 3 1 98 1 98 -26 -21 c-20 -16
-41 -20 -94 -20 -62 0 -72 3 -101 29 l-33 29 0 225 c0 211 1 226 20 247 35 39
69 47 168 41z"/>
<path d="M597 1048 c-6 -18 -7 -279 -1 -300 6 -21 66 -25 81 -5 15 17 16 287
2 304 -14 17 -75 17 -82 1z"/>
<path d="M1046 1120 c1 -58 2 -108 3 -112 1 -5 23 -8 51 -8 62 0 67 9 69 122
2 100 -5 109 -81 105 l-44 -1 2 -106z"/>
<path d="M1331 1097 c0 -131 -9 -160 -58 -193 l-31 -21 44 -94 c24 -52 52
-111 62 -132 l17 -38 118 119 c113 115 117 120 117 162 0 42 -3 47 -135 179
l-134 136 0 -118z"/>
</g>
</svg>
